#!OML:ASF E:\Steps\Project 1\Capture day 1\Session 2\Subject.ASF
:FULLY-SPECIFIED
:DEGREES
104
root -0.895863 17.9731 20.9404 -154.53 -1.86484 177.745
lowerback -26.8602 -3.07475 -7.12583
upperback 0.278797 -2.1694 -0.0265163
thorax 14.9284 -1.63791 3.01394
lowerneck 2.26573 -1.44506 -2.17674
upperneck 15.3039 -1.54853 6.56497
head 4.25901 -0.0880809 2.37172
rclavicle 1.70955e-014 2.62396e-014
rhumerus -38.4792 -18.0985 -77.1856
rradius 32.917
rwrist -0.513782
rhand -9.22494 -56.6416
rfingers 7.12502
rthumb 16.7299 -85.9407
lclavicle 1.70955e-014 2.62396e-014
lhumerus -30.0588 6.57852 80.3466
lradius 22.3096
lwrist -4.81281
lhand -22.8468 -13.3333
lfingers 7.12502
lthumb 3.591 16.6162
rfemur -22.7292 4.32539 20.0887
rtibia 5.35444
rfoot -17.0979 -2.16741
rtoes -14.8655
lfemur -23.485 -9.05486 -21.5382
ltibia 7.33803
lfoot -5.85092 -3.0792
ltoes -16.7326
105
root -0.89633 17.9696 20.9408 -154.41 -1.82629 177.749
lowerback -27.0084 -3.06919 -7.11383
upperback 0.237513 -2.16428 -0.021707
thorax 14.9507 -1.63768 3.00935
lowerneck 2.13391 -1.37551 -2.13207
upperneck 15.6016 -1.42966 6.46994
head 4.36583 -0.0143689 2.34196
rclavicle 2.41523e-014 2.94201e-014
rhumerus -38.5176 -18.024 -77.2261
rradius 32.9401
rwrist -0.316319
rhand -9.34846 -56.6813
rfingers 7.12502
rthumb 16.611 -85.9905
lclavicle 2.41523e-014 2.94201e-014
lhumerus -30.1044 6.67451 80.2974
lradius 22.1607
lwrist -4.85068
lhand -22.8643 -13.2771
lfingers 7.12502
lthumb 3.57413 16.6727
rfemur -22.8899 4.42531 20.0633
rtibia 5.40749
rfoot -17.1765 -2.28203
rtoes -14.9521
lfemur -23.6279 -8.93377 -21.5517
ltibia 7.35994
lfoot -5.78093 -3.18178
ltoes -16.8393
106
root -0.897379 17.9722 20.9418 -154.48 -1.85761 177.74
lowerback -26.951 -3.08484 -7.11339
upperback 0.24961 -2.18743 -0.0131923
thorax 14.9403 -1.6471 3.01155
lowerneck 2.05772 -1.3527 -2.11122
upperneck 15.7509 -1.3863 6.4108
head 4.42195 0.0133854 2.32328
rclavicle -2.05742e-014 8.34896e-015
rhumerus -38.5435 -17.958 -77.2543
rradius 32.9769
rwrist -0.194078
rhand -9.37979 -56.652
rfingers 7.12502
rthumb 16.5808 -85.9637
lclavicle -2.05742e-014 8.34896e-015
lhumerus -30.0968 6.97218 80.1884
lradius 21.982
lwrist -4.95861
lhand -22.8722 -13.2715
lfingers 7.12502
lthumb 3.56648 16.6784
rfemur -22.7947 4.54375 20.0211
rtibia 5.37209
rfoot -17.201 -2.42237
rtoes -15.2601
lfemur -23.5428 -8.90568 -21.5788
ltibia 7.30197
lfoot -5.73356 -3.22893
ltoes -16.0806
107
root -0.896275 17.9717 20.9456 -154.386 -1.86216 177.763
lowerback -27.0366 -3.10515 -7.12735
upperback 0.226453 -2.2118 0.0141095
thorax 14.9588 -1.66148 3.03646
lowerneck 2.13415 -1.3353 -2.11556
upperneck 15.6588 -1.36242 6.38762
head 4.38 0.0182305 2.31649
rclavicle 1.97791e-014 3.10104e-014
rhumerus -38.536 -17.9011 -77.2839
rradius 32.9939
rwrist -0.228314
rhand -9.48954 -56.6325
rfingers 7.12502
rthumb 16.4752 -85.953
lclavicle 1.97791e-014 3.10104e-014
lhumerus -30.125 7.18637 80.0935
lradius 21.8335
lwrist -5.11521
lhand -22.8116 -13.3397
lfingers 7.12502
lthumb 3.62504 16.6092
rfemur -22.9354 4.61432 20.0275
rtibia 5.38436
rfoot -17.1693 -2.40643
rtoes -14.8434
lfemur -23.6891 -8.80111 -21.5449
ltibia 7.3261
lfoot -5.7471 -3.32158
ltoes -14.7951
108
root -0.896235 17.9741 20.9478 -154.436 -1.96928 177.784
lowerback -26.8843 -3.10053 -7.07284
upperback 0.188659 -2.23551 0.000314046
thorax 14.8413 -1.66429 2.9885
lowerneck 2.21159 -1.33403 -2.08526
upperneck 15.5928 -1.35988 6.39307
head 4.34671 0.0189465 2.31259
rclavicle 1.53064e-014 1.27222e-014
rhumerus -38.6199 -17.9733 -77.2867
rradius 32.9971
rwrist -0.242303
rhand -9.58477 -56.6524
rfingers 7.12502
rthumb 16.3835 -85.9804
lclavicle 1.53064e-014 1.27222e-014
lhumerus -30.2143 7.13456 80.0246
lradius 21.7037
lwrist -5.14762
lhand -22.7678 -13.3605
lfingers 7.12502
lthumb 3.66733 16.5877
rfemur -22.8754 4.54936 20.0854
rtibia 5.36107
rfoot -17.0977 -2.44261
rtoes -14.7204
lfemur -23.67 -8.72991 -21.5249
ltibia 7.35464
lfoot -5.70978 -3.50584
ltoes -13.9118
109
root -0.900473 17.9724 20.9448 -154.446 -2.04594 177.842
lowerback -26.8588 -3.04394 -6.90954
upperback 0.150958 -2.21456 -0.0308594
thorax 14.7766 -1.64101 2.8752
lowerneck 2.34841 -1.34215 -2.1089
upperneck 15.464 -1.37768 6.47942
head 4.28578 0.00817984 2.3416
rclavicle 2.93207e-014 -2.78299e-015
rhumerus -38.7426 -18.1201 -77.2406
rradius 32.9914
rwrist -0.200254
rhand -9.62727 -56.7033
rfingers 7.12502
rthumb 16.3425 -86.0347
lclavicle 2.93207e-014 -2.78299e-015
lhumerus -30.2741 7.04071 79.9442
lradius 21.5667
lwrist -5.04871
lhand -22.7325 -13.3949
lfingers 7.12502
lthumb 3.70143 16.5527
rfemur -22.8752 4.30231 20.1796
rtibia 5.41583
rfoot -17.0993 -2.276
rtoes -14.9862
lfemur -23.6501 -8.91771 -21.4156
ltibia 7.33675
lfoot -5.70588 -3.34941
ltoes -13.975
110
root -0.897132 17.971 20.9472 -154.41 -2.03963 177.875
lowerback -26.8852 -3.02286 -6.94005
upperback 0.13262 -2.18052 -0.0134676
thorax 14.766 -1.62893 2.92301
lowerneck 2.35256 -1.36137 -2.20273
upperneck 15.4282 -1.41782 6.60834
head 4.27674 -0.0114835 2.3957
rclavicle -2.87244e-014 -1.98785e-014
rhumerus -38.7628 -18.1643 -77.2158
rradius 32.9715
rwrist -0.236056
rhand -9.76335 -56.7563
rfingers 7.12502
rthumb 16.2115 -86.0984
lclavicle -2.87244e-014 -1.98785e-014
lhumerus -30.2534 7.1005 79.8697
lradius 21.4257
lwrist -5.06898
lhand -22.5294 -13.3236
lfingers 7.12502
lthumb 3.89758 16.6205
rfemur -22.9565 4.17931 20.2994
rtibia 5.54074
rfoot -17.1781 -2.14926
rtoes -15.4041
lfemur -23.7075 -8.71096 -21.4108
ltibia 7.37607
lfoot -5.63257 -3.51072
ltoes -14.8963
111
root -0.899097 17.9695 20.9459 -154.388 -2.0398 177.871
lowerback -27.0011 -3.01969 -6.95283
upperback 0.167036 -2.1614 -0.00390726
thorax 14.8611 -1.62389 2.94344
lowerneck 2.28929 -1.37272 -2.23237
upperneck 15.4343 -1.44043 6.64077
head 4.29038 -0.0228697 2.4099
rclavicle 1.39149e-015 2.22639e-014
rhumerus -38.7044 -18.1625 -77.2115
rradius 32.947
rwrist -0.34779
rhand -9.91021 -56.8169
rfingers 7.12502
rthumb 16.0701 -86.1705
lclavicle 1.39149e-015 2.22639e-014
lhumerus -30.2569 7.11364 79.8799
lradius 21.4335
lwrist -5.12804
lhand -22.3866 -13.2444
lfingers 7.12502
lthumb 4.03541 16.6971
rfemur -23.0006 4.21031 20.2627
rtibia 5.61213
rfoot -17.2838 -2.24471
rtoes -15.8691
lfemur -23.7201 -8.81186 -21.4056
ltibia 7.35492
lfoot -5.61964 -3.40398
ltoes -15.848
112
root -0.899419 17.9701 20.9486 -154.335 -2.06461 177.821
lowerback -27.0958 -3.02988 -7.01657
upperback 0.176435 -2.14686 -0.0150484
thorax 14.9171 -1.62377 2.96788
lowerneck 2.49562 -1.35666 -2.17202
upperneck 15.2081 -1.41628 6.60469
head 4.1857 -0.0211711 2.38702
rclavicle 2.5842e-015 9.93923e-015
rhumerus -38.6963 -18.2968 -77.1701
rradius 32.9469
rwrist -0.377437
rhand -9.77474 -56.7187
rfingers 7.12502
rthumb 16.2006 -86.0618
lclavicle 2.5842e-015 9.93923e-015
lhumerus -30.3199 7.01505 79.8975
lradius 21.5462
lwrist -5.08905
lhand -22.2678 -13.2063
lfingers 7.12502
lthumb 4.15018 16.733
rfemur -23.0717 4.40148 20.1523
rtibia 5.62081
rfoot -17.3487 -2.487
rtoes -15.6903
lfemur -23.8065 -8.8002 -21.4616
ltibia 7.39361
lfoot -5.60005 -3.47236
ltoes -15.505
